<?xml version="1.0" encoding="utf-8"?>
<!-- Generator: Adobe Illustrator 27.9.0, SVG Export Plug-In . SVG Version: 6.00 Build 0)  -->
<svg version="1.1" id="Layer_1" xmlns="http://www.w3.org/2000/svg" xmlns:xlink="http://www.w3.org/1999/xlink" x="0px" y="0px"
	 viewBox="0 0 1920 1080" style="enable-background:new 0 0 1920 1080;" xml:space="preserve">
<style type="text/css">
	.st0{fill:#F16622;}
	.st1{fill:#FF6602;}
	.st2{fill:#036C01;}
	.st3{fill:#8FC63E;}
	.st4{fill:#06AE01;}
	.st5{fill:#2BA02B;}
	.st6{fill:#11AE4B;}
	.st7{fill:#FE6602;}
	.st8{fill:#FF6633;}
</style>
<rect x="352.2" y="595.34" class="st0" width="61.56" height="170.66"/>
<path id="path181791" class="st1" d="M300.6,511.6h77.86V766H300.6C329.57,680.45,329.11,595.34,300.6,511.6z M455.86,511.6H378V766
	h77.86C426.89,680.45,426.89,595.34,455.86,511.6z"/>
<ellipse id="ellipse181797" class="st2" cx="337.71" cy="501.19" rx="112.71" ry="105.02"/>
<ellipse id="ellipse181799" class="st3" cx="379.36" cy="411.56" rx="112.71" ry="105.02"/>
<ellipse id="ellipse181801" class="st4" cx="433.68" cy="501.19" rx="112.71" ry="105.02"/>
<g id="text177033">
	<path id="path7737" class="st5" d="M688.22,762.23c-7.18,4.26-16.22,6.38-27.13,6.38c-11.97,0-21.54-3.19-28.46-9.84
		c-6.92-6.65-10.37-15.96-10.37-27.39c0-11.7,3.72-21.28,11.44-28.72c7.45-7.45,17.55-11.17,30.32-11.17
		c7.98,0,14.89,1.06,21.01,3.19v15.69c-5.85-3.46-12.77-5.05-21.01-5.05c-6.91,0-12.77,2.39-17.02,6.92
		c-4.26,4.52-6.65,10.64-6.65,18.09c0,7.71,1.86,13.56,5.85,17.82c3.99,4.26,9.31,6.38,15.96,6.38c3.99,0,7.18-0.53,9.57-1.6v-14.63
		h-14.89v-13.3h31.65L688.22,762.23z"/>
	<path id="path7739" class="st5" d="M736.09,728.72c-1.86-1.06-4.26-1.6-6.92-1.6c-3.46,0-6.38,1.33-8.51,3.99
		c-2.13,2.66-2.93,6.12-2.93,10.64v25.53h-16.49v-53.19h16.49v9.84h0.27c2.66-7.18,7.18-10.9,14.1-10.9c1.86,0,3.19,0.27,3.99,0.53
		V728.72z"/>
	<path id="path7741" class="st5" d="M790.08,745.47h-34.84c0.53,7.71,5.32,11.7,14.63,11.7c5.85,0,10.9-1.33,15.43-4.26v11.97
		c-5.05,2.66-11.44,3.99-19.15,3.99c-8.51,0-15.16-2.39-19.95-7.18c-4.79-4.79-7.18-11.44-7.18-19.95c0-8.78,2.66-15.96,7.71-21.01
		s11.44-7.71,18.88-7.71c7.71,0,13.83,2.39,18.09,6.92c4.26,4.52,6.38,10.9,6.38,18.88V745.47L790.08,745.47z M774.92,735.37
		c0-7.71-3.19-11.44-9.31-11.44c-2.66,0-5.05,1.06-6.92,3.19c-1.86,2.13-3.19,4.79-3.46,8.24H774.92z"/>
	<path id="path7743" class="st5" d="M847.8,745.47h-34.84c0.53,7.71,5.32,11.7,14.63,11.7c5.85,0,10.9-1.33,15.43-4.26v11.97
		c-5.05,2.66-11.44,3.99-19.15,3.99c-8.51,0-15.16-2.39-19.95-7.18c-4.79-4.79-7.18-11.44-7.18-19.95c0-8.78,2.66-15.96,7.71-21.01
		s11.44-7.71,18.88-7.71c7.71,0,13.83,2.39,18.09,6.92c4.26,4.52,6.38,10.9,6.38,18.88L847.8,745.47z M832.64,735.37
		c0-7.71-3.19-11.44-9.31-11.44c-2.66,0-5.05,1.06-6.92,3.19c-1.86,2.13-3.19,4.79-3.46,8.24H832.64z"/>
	<path id="path7745" class="st5" d="M908.97,767.28h-16.22v-29.52c0-8.24-2.93-12.5-8.78-12.5c-2.93,0-5.32,1.06-6.92,3.19
		c-1.86,2.13-2.66,5.05-2.66,8.24v30.32H857.9v-53.19h16.49v8.51h0.27c3.99-6.38,9.57-9.84,17.02-9.84
		c11.7,0,17.82,7.45,17.82,22.07v32.71H908.97z"/>
	<path id="path7747" class="st5" d="M969.87,745.47H935.3c0.53,7.71,5.32,11.7,14.63,11.7c5.85,0,10.9-1.33,15.43-4.26v11.97
		c-5.05,2.66-11.44,3.99-19.15,3.99c-8.51,0-15.16-2.39-19.95-7.18c-4.79-4.79-7.18-11.44-7.18-19.95c0-8.78,2.66-15.96,7.71-21.01
		c5.05-5.05,11.44-7.71,18.88-7.71c7.71,0,13.83,2.39,18.09,6.92c4.26,4.52,6.38,10.9,6.38,18.88L969.87,745.47z M954.71,735.37
		c0-7.71-3.19-11.44-9.31-11.44c-2.66,0-5.05,1.06-6.92,3.19c-1.86,2.13-3.19,4.79-3.46,8.24H954.71z"/>
	<path id="path7749" class="st5" d="M1014.55,728.72c-1.86-1.06-4.26-1.6-6.92-1.6c-3.46,0-6.38,1.33-8.51,3.99
		c-2.13,2.66-2.93,6.12-2.93,10.64v25.53h-16.49v-53.19h16.49v9.84h0.27c2.66-7.18,7.18-10.9,14.1-10.9c1.86,0,3.19,0.27,3.99,0.53
		V728.72z"/>
	<path id="path7751" class="st5" d="M1077.32,714.09l-21.54,57.45c-5.32,13.83-13.03,20.75-23.4,20.75c-3.99,0-7.18-0.53-9.84-1.33
		v-13.03c2.13,1.33,4.52,1.86,7.18,1.86c4.26,0,7.18-2.13,8.78-6.12l2.93-6.65l-21.54-53.19h18.35l9.84,32.45
		c0.53,2.13,1.06,4.52,1.33,7.18h0.27c0.27-2.13,0.8-4.26,1.6-6.92l10.11-32.45H1077.32z"/>
	<path id="path7753" class="st0" d="M1199.93,767.28h-16.49V722.6c0-4.79,0.27-10.11,0.53-15.96h-0.53c-0.8,4.52-1.6,7.98-2.39,9.84
		l-17.55,50.8h-13.83l-17.82-50.27c-0.53-1.33-1.33-4.79-2.39-10.37h0c0.53,7.45,0.8,13.83,0.8,19.42v41.22h-15.16v-74.74h24.73
		l15.16,44.15c1.33,3.46,2.13,7.18,2.66,10.64h0.27c1.06-4.26,1.86-7.71,2.93-10.9l15.16-44.15h23.94V767.28z"/>
	<path id="path7755" class="st0" d="M1259.51,767.28h-15.69v-7.71l0,0c-3.46,5.85-8.78,9.04-15.96,9.04
		c-5.05,0-9.31-1.33-12.23-4.26c-2.93-2.93-4.52-6.92-4.52-11.7c0-10.37,6.12-16.22,18.35-17.82l14.36-1.86
		c0-5.85-3.19-8.78-9.57-8.78c-6.38,0-12.5,1.86-18.09,5.59v-12.5c2.39-1.06,5.32-2.13,9.31-3.19c3.99-0.8,7.71-1.33,10.9-1.33
		c15.16,0,22.87,7.71,22.87,22.87v31.65H1259.51z M1244.08,745.74v-3.72l-9.57,1.33c-5.32,0.8-7.98,3.19-7.98,7.18
		c0,1.86,0.53,3.46,1.86,4.52s3.19,1.86,5.32,1.86c3.19,0,5.59-1.06,7.45-3.19C1243.28,751.59,1244.08,748.93,1244.08,745.74
		L1244.08,745.74z"/>
	<path id="path7757" class="st0" d="M1307.38,728.72c-1.86-1.06-4.26-1.6-6.92-1.6c-3.46,0-6.38,1.33-8.51,3.99
		c-2.13,2.66-2.93,6.12-2.93,10.64v25.53h-16.49v-53.19h16.49v9.84h0.27c2.66-7.18,7.18-10.9,14.1-10.9c1.86,0,3.19,0.27,3.99,0.53
		V728.72L1307.38,728.72z"/>
	<path id="path7759" class="st0" d="M1350.46,766.75c-2.39,1.33-6.12,1.86-10.9,1.86c-11.7,0-17.29-6.12-17.29-18.09v-24.47h-8.51
		v-12.23h8.51v-11.44l16.49-4.79v16.22h11.97v12.23h-11.97v21.54c0,5.59,2.13,8.24,6.65,8.24c1.86,0,3.46-0.53,5.32-1.6
		L1350.46,766.75z"/>
	<path id="path7761" class="st0" d="M1444.08,764.62c-5.32,2.66-12.5,3.99-21.28,3.99c-11.44,0-20.48-3.46-27.13-10.11
		c-6.65-6.65-9.84-15.69-9.84-26.86c0-11.97,3.72-21.54,10.9-28.99c7.45-7.45,17.02-11.17,28.72-11.17c7.18,0,13.3,0.8,18.35,2.66
		v16.22c-5.05-2.93-10.64-4.52-17.02-4.52c-6.92,0-12.77,2.13-17.02,6.65c-4.26,4.52-6.38,10.37-6.38,17.82
		c0,7.18,2.13,13.03,6.12,17.29c3.99,4.26,9.57,6.38,16.49,6.38c6.65,0,12.5-1.6,18.09-4.79L1444.08,764.62z"/>
	<path id="path7763" class="st0" d="M1481.05,768.61c-8.78,0-15.96-2.39-21.01-7.45c-5.05-5.05-7.71-11.7-7.71-20.21
		c0-8.78,2.66-15.69,7.98-20.75c5.32-5.05,12.5-7.45,21.28-7.45s15.69,2.39,20.75,7.45c5.05,5.05,7.45,11.44,7.45,19.68
		c0,8.78-2.66,15.96-7.71,21.01C1497.01,765.95,1490.1,768.61,1481.05,768.61L1481.05,768.61z M1481.32,725.26
		c-3.99,0-6.92,1.33-9.04,3.99c-2.13,2.66-3.19,6.38-3.19,11.44c0,10.11,4.26,15.43,12.5,15.43c7.98,0,11.7-5.32,11.7-15.69
		C1493.29,730.31,1489.3,725.26,1481.32,725.26L1481.32,725.26z"/>
	<path id="path7765" class="st0" d="M1555.52,728.72c-1.86-1.06-4.26-1.6-6.92-1.6c-3.46,0-6.38,1.33-8.51,3.99
		c-2.13,2.66-2.93,6.12-2.93,10.64v25.53h-16.49v-53.19h16.49v9.84h0.27c2.66-7.18,7.18-10.9,14.1-10.9c1.86,0,3.19,0.27,3.99,0.53
		V728.72z"/>
	<path id="path7767" class="st0" d="M1579.72,761.16L1579.72,761.16l-0.27,30.59h-16.49v-77.93h16.49v7.98h0.27
		c3.99-6.12,9.84-9.31,17.02-9.31c6.92,0,12.23,2.39,15.96,7.18c3.72,4.79,5.59,11.17,5.59,19.42c0,8.78-2.13,15.96-6.65,21.28
		c-4.26,5.32-10.11,7.98-17.55,7.98C1587.97,768.61,1583.18,766.22,1579.72,761.16L1579.72,761.16z M1579.46,739.36v4.26
		c0,3.72,1.06,6.65,2.93,9.04c1.86,2.39,4.52,3.46,7.71,3.46c3.72,0,6.65-1.33,8.78-4.26s3.19-6.92,3.19-12.23
		c0-9.31-3.72-14.1-10.9-14.1c-3.46,0-6.12,1.33-8.24,3.72C1580.52,731.64,1579.46,735.1,1579.46,739.36L1579.46,739.36z"/>
	<path id="path7769" class="st0" d="M1636.64,768.61c-2.66,0-5.05-0.8-6.65-2.39c-1.6-1.6-2.66-3.72-2.66-6.12s0.8-4.52,2.66-6.12
		c1.86-1.6,4.26-2.39,6.92-2.39c2.93,0,5.05,0.8,6.92,2.39c1.86,1.6,2.66,3.72,2.66,6.12c0,2.66-0.8,4.52-2.66,6.12
		C1641.96,767.81,1639.57,768.61,1636.64,768.61z"/>
</g>
<ellipse id="ellipse181803" class="st6" cx="357.18" cy="444.15" rx="3.17" ry="0.91"/>
<path id="path5746" class="st5" d="M914.37,624.4c-32.7,18.74-73.24,28.28-121.62,28.28c-53.82,0-96.07-14.99-127.07-44.63
	c-31-29.64-46.33-70.86-46.33-122.98c0-52.46,17.03-95.05,50.76-128.43s78.69-49.74,134.9-49.74c35.43,0,66.43,4.77,93.68,14.65
	v70.52c-25.89-14.99-57.23-22.48-94.36-22.48c-31.34,0-56.55,10.22-76.31,30.66c-19.42,20.1-29.3,47.01-29.3,81.08
	c0,34.41,8.86,60.98,26.23,79.72c17.71,18.74,41.56,28.28,71.54,28.28c18.06,0,32.36-2.73,42.92-7.84v-65.07h-67.11v-59.96h142.06
	V624.4z"/>
<path id="path5748" class="st7" d="M1344.29,646.54h-74.26V446.92c0-21.46,1.02-45.31,2.73-71.54h-1.7
	c-3.75,20.44-7.49,35.09-10.56,44.29l-78.35,226.88h-61.32l-79.72-224.5c-2.04-6.13-5.79-21.46-10.56-46.67h-2.04
	c2.04,33.04,3.07,61.66,3.07,86.53v184.64h-67.79V312.69h110.03l68.13,197.93c5.45,15.67,9.54,31.68,11.92,47.69h1.36
	c4.09-18.4,8.52-34.41,13.29-48.03l68.13-197.24h107.65V646.54z"/>
<path id="path5750" class="st8" d="M1644.07,634.62c-24.53,11.92-56.21,17.71-95.39,17.71c-51.1,0-91.64-14.99-120.94-45.31
	c-29.3-30.32-43.95-70.18-43.95-120.25c0-53.48,16.35-96.75,49.4-129.79c33.04-33.04,75.97-49.74,128.43-49.74
	c32.7,0,59.96,4.09,82.44,12.26v72.56c-22.48-13.29-47.69-20.1-76.31-20.1c-31.34,0-56.55,9.88-75.97,29.64
	c-19.42,19.76-28.96,46.33-28.96,80.06c0,32.36,9.2,57.91,27.25,77.33c18.06,19.08,42.58,28.62,73.24,28.62
	c29.3,0,56.21-7.15,80.4-21.46L1644.07,634.62z"/>
</svg>
