<svg version="1.1" id="Layer_1" xmlns="http://www.w3.org/2000/svg" xmlns:xlink="http://www.w3.org/1999/xlink" x="0px" y="0px"
	 width="100%" viewBox="0 0 567 209" enable-background="new 0 0 567 209" xml:space="preserve">
<path fill="#FEFEFE" opacity="1.000000" stroke="none" 
	d="
M367.000000,210.000000 
	C244.666672,210.000000 122.833336,210.000000 1.000000,210.000000 
	C1.000000,140.333328 1.000000,70.666664 1.000000,1.000000 
	C190.000000,1.000000 379.000000,1.000000 568.000000,1.000000 
	C568.000000,70.666664 568.000000,140.333328 568.000000,210.000000 
	C501.166656,210.000000 434.333344,210.000000 367.000000,210.000000 
M147.155869,132.636429 
	C156.793350,113.469788 159.478729,92.975685 157.808624,71.928238 
	C156.093048,50.307999 147.125870,32.223225 129.067001,19.423849 
	C113.253220,8.215689 95.305962,5.395502 76.661812,8.215584 
	C50.937622,12.106580 31.503040,25.227289 22.772875,50.595695 
	C14.085370,75.840141 24.930712,100.028473 48.039906,109.303261 
	C50.927853,110.462318 53.974728,111.225388 57.750408,112.427399 
	C55.733715,119.986153 53.770409,127.317795 51.822884,134.653610 
	C50.470627,139.747208 47.677639,142.452942 41.983517,143.356995 
	C33.069126,144.772339 25.249907,148.989365 20.066935,156.833298 
	C17.668125,160.463669 16.215261,165.091125 19.135601,168.454056 
	C21.135271,170.756775 25.357243,171.916107 28.680939,172.133911 
	C38.322289,172.765686 46.484230,168.510391 53.736221,162.613419 
	C56.825439,160.101425 59.494102,159.429565 63.154182,161.296387 
	C68.479645,164.012619 73.993187,166.375870 79.498581,168.720474 
	C93.834335,174.825684 107.493027,173.122879 120.314621,164.608063 
	C132.138931,156.755554 140.197510,145.598831 147.155869,132.636429 
M310.684113,170.932770 
	C320.980835,171.362350 329.869293,167.825043 338.180725,160.421738 
	C336.452972,171.193741 334.739929,181.266098 325.957642,187.231796 
	C313.720123,195.544632 300.612793,192.760773 287.556519,187.742477 
	C285.195740,191.893265 282.925842,195.884247 280.523315,200.108398 
	C288.104614,204.596405 295.960602,206.152115 304.197571,206.302444 
	C319.067719,206.573853 332.669037,203.469437 342.953156,191.648773 
	C350.108673,183.424088 352.646027,173.290085 354.888977,162.978302 
	C359.839386,140.219238 360.388275,116.478569 370.277069,94.279488 
	C366.048187,92.820274 361.189514,89.368446 357.855530,90.481895 
	C354.371429,91.645477 352.354248,97.201477 349.750641,100.762383 
	C335.340881,82.218903 307.193848,89.371590 295.609222,103.260147 
	C285.905579,114.893661 282.406586,128.457352 283.187958,143.259796 
	C284.046478,159.524078 293.560822,169.245407 310.684113,170.932770 
M365.151306,138.660095 
	C363.342316,149.263199 361.533356,159.866287 359.687500,170.685791 
	C365.661041,170.685791 371.066742,170.685791 376.573212,170.685791 
	C379.080078,156.654694 381.327606,142.872437 384.054413,129.185669 
	C386.322113,117.803101 391.807556,108.512299 403.659882,104.881317 
	C415.833893,101.151764 423.609039,108.081894 421.536896,120.534645 
	C419.898560,130.380463 418.059326,140.192688 416.352051,150.027252 
	C415.040344,157.583328 414.489929,165.085495 418.250366,172.631363 
	C423.653259,170.668198 428.744568,168.818253 432.420807,167.482483 
	C433.168976,158.918228 433.638916,151.373123 434.527618,143.877670 
	C435.836975,132.834473 438.374390,121.852470 438.681183,110.797020 
	C439.034241,98.075844 430.670593,90.638062 418.003418,89.976685 
	C408.803986,89.496368 400.597626,92.026169 393.145660,97.328590 
	C392.077393,98.088692 390.829315,98.596069 389.044800,99.552567 
	C391.985657,82.852051 394.752258,67.141068 397.556030,51.219124 
	C391.434143,51.219124 386.167053,51.219124 380.605743,51.219124 
	C375.485046,80.208076 370.397430,109.009911 365.151306,138.660095 
M216.920135,163.416794 
	C218.414780,162.191757 219.909424,160.966736 221.575378,159.601288 
	C218.980148,156.158813 216.718903,153.159363 214.271698,149.913239 
	C205.516159,156.931625 195.871414,159.293701 185.351044,158.015839 
	C174.722916,156.724869 168.573975,148.107895 171.592331,138.508606 
	C173.292038,138.508606 175.103699,138.508850 176.915375,138.508560 
	C190.411758,138.506454 203.908249,138.535477 217.404465,138.486969 
	C222.938187,138.467087 228.171265,137.684128 230.621887,131.647354 
	C237.081772,115.734467 227.221313,95.451759 210.666199,91.227356 
	C200.017075,88.509987 189.507126,89.537041 179.507004,94.300873 
	C156.148270,105.428444 151.031448,134.770355 155.431824,151.096054 
	C158.222382,161.449219 165.266922,168.091507 175.418320,170.829056 
	C189.989288,174.758453 203.779236,172.515244 216.920135,163.416794 
M520.506836,90.900856 
	C517.482544,91.772842 514.319214,92.326553 511.459717,93.575714 
	C502.418701,97.525307 497.311340,104.376945 497.051178,114.452705 
	C496.809875,123.797462 502.569672,129.003967 510.057495,132.856003 
	C513.151428,134.447632 516.441650,135.660553 519.654663,137.016968 
	C524.090698,138.889664 528.719910,140.398010 532.938538,142.670914 
	C539.349304,146.124924 539.257812,153.594299 532.566406,156.563034 
	C528.940796,158.171585 524.515076,158.651184 520.483093,158.531845 
	C511.503082,158.266037 503.733704,154.740417 497.649139,147.474060 
	C493.545990,151.205002 489.759949,154.647598 485.995728,158.070374 
	C497.031616,172.547806 525.012085,177.315140 542.041260,168.015381 
	C550.666077,163.305313 554.756592,156.018600 554.786194,146.439362 
	C554.813660,137.554413 549.070312,132.671722 541.817810,129.123917 
	C538.687500,127.592613 535.454041,126.268661 532.246704,124.899048 
	C527.816101,123.007072 523.145325,121.540131 519.015747,119.137794 
	C516.901123,117.907677 514.357605,114.939178 514.502441,112.936798 
	C514.677734,110.513870 517.014893,107.313499 519.278259,106.197685 
	C522.547180,104.586143 526.738342,103.534012 530.272827,104.049110 
	C537.326965,105.077126 544.202087,107.332932 551.891724,109.268013 
	C553.762695,106.586006 556.284363,102.971214 558.985901,99.098625 
	C547.475342,90.054474 534.809204,88.672852 520.506836,90.900856 
M448.201691,96.681854 
	C447.106232,99.385468 446.010803,102.089073 444.592529,105.589401 
	C449.557983,105.589401 453.767120,105.589401 458.376526,105.589401 
	C458.049561,108.049324 457.860352,109.840828 457.567902,111.615295 
	C455.271301,125.548409 452.706360,139.443146 450.732330,153.421478 
	C449.426270,162.669876 453.479034,169.408478 461.256317,171.407867 
	C469.172821,173.443054 477.010010,172.501984 484.902161,169.279083 
	C484.183319,165.005875 483.511047,161.009430 482.807251,156.825653 
	C481.455811,157.235504 480.677185,157.507904 479.880371,157.707840 
	C469.165558,160.396530 466.407623,157.705780 468.422882,146.781281 
	C470.171265,137.303543 471.694244,127.784416 473.404144,118.299316 
	C474.136505,114.236687 473.798920,108.575218 476.289642,106.612564 
	C479.036072,104.448402 484.478821,105.785278 488.730530,105.409767 
	C490.245239,105.275978 492.545563,105.037666 493.053467,104.083679 
	C495.104523,100.231339 496.596161,96.081139 498.619385,91.267548 
	C491.148560,91.267548 484.730225,91.267548 477.868011,91.267548 
	C478.657013,86.671341 479.347534,82.618080 480.049713,78.566833 
	C480.767731,74.424454 481.497162,70.284058 482.348419,65.417610 
	C479.988373,66.277847 478.643494,66.938622 477.221893,67.258728 
	C467.533173,69.440407 462.015442,74.997612 462.371735,85.377663 
	C462.541534,90.324638 460.233459,92.278343 455.368164,91.393784 
	C451.657379,90.719124 449.290131,92.183647 448.201691,96.681854 
M260.576996,76.097816 
	C261.988678,67.912369 263.400360,59.726917 264.863251,51.244499 
	C259.236328,51.244499 253.801529,51.244499 247.901215,51.244499 
	C240.926773,90.953300 233.946472,130.695511 226.911591,170.748444 
	C232.706726,170.748444 238.143448,170.748444 243.934326,170.748444 
	C249.410934,139.441544 254.878586,108.185860 260.576996,76.097816 
M280.087036,110.709900 
	C281.192413,104.434402 282.297791,98.158905 283.491791,91.380264 
	C278.528442,91.380264 274.544128,91.537827 270.579010,91.329521 
	C267.506348,91.168106 266.325195,92.139862 265.797089,95.370781 
	C263.463806,109.644875 260.732574,123.853493 258.205994,138.096558 
	C256.296387,148.861572 254.478394,159.642838 252.570312,170.702881 
	C258.512268,170.702881 263.908813,170.702881 269.496246,170.702881 
	C273.027710,150.818390 276.512848,131.194839 280.087036,110.709900 
M267.814728,70.633186 
	C270.123138,76.768524 274.667053,79.007408 281.198944,77.227882 
	C287.963684,75.384926 292.288696,69.091240 291.329620,62.784203 
	C290.700012,58.643940 288.270050,56.238327 284.442108,55.261158 
	C275.211456,52.904842 266.897644,60.207012 267.814728,70.633186 
z"/>
<path fill="#518B4B" opacity="1.000000" stroke="none" 
	d="
M147.019379,132.981659 
	C140.197510,145.598831 132.138931,156.755554 120.314621,164.608063 
	C107.493027,173.122879 93.834335,174.825684 79.498581,168.720474 
	C73.993187,166.375870 68.479645,164.012619 63.154182,161.296387 
	C59.494102,159.429565 56.825439,160.101425 53.736221,162.613419 
	C46.484230,168.510391 38.322289,172.765686 28.680939,172.133911 
	C25.357243,171.916107 21.135271,170.756775 19.135601,168.454056 
	C16.215261,165.091125 17.668125,160.463669 20.066935,156.833298 
	C25.249907,148.989365 33.069126,144.772339 41.983517,143.356995 
	C47.677639,142.452942 50.470627,139.747208 51.822884,134.653610 
	C53.770409,127.317795 55.733715,119.986153 57.750408,112.427399 
	C53.974728,111.225388 50.927853,110.462318 48.039906,109.303261 
	C24.930712,100.028473 14.085370,75.840141 22.772875,50.595695 
	C31.503040,25.227289 50.937622,12.106580 76.661812,8.215584 
	C95.305962,5.395502 113.253220,8.215689 129.067001,19.423849 
	C147.125870,32.223225 156.093048,50.307999 157.808624,71.928238 
	C159.478729,92.975685 156.793350,113.469788 147.019379,132.981659 
M39.209888,69.125107 
	C41.423908,83.388138 49.541916,92.919434 61.356739,94.801666 
	C61.916763,92.970306 62.457081,91.080406 63.071114,89.214775 
	C68.366005,73.127151 73.609795,57.021908 79.084587,40.995625 
	C79.595146,39.501049 81.568199,37.501595 82.904610,37.468895 
	C88.455223,37.333073 94.022102,37.861767 99.202835,38.127106 
	C93.464096,59.235874 87.873528,79.799606 82.194794,100.687645 
	C87.874069,100.687645 92.291748,100.687645 97.598610,100.687645 
	C96.403267,102.972717 95.909752,105.514915 94.404907,106.479805 
	C90.570145,108.938583 86.264496,110.655556 82.188904,112.750389 
	C80.848030,113.439598 78.899811,114.106079 78.479958,115.244286 
	C75.225479,124.066994 72.277351,133.002716 69.077919,142.361130 
	C77.786964,145.222931 86.855164,147.862991 95.653389,151.212296 
	C101.599686,153.475906 106.927315,152.559586 111.723541,149.253754 
	C115.632759,146.559311 119.421509,143.288803 122.267540,139.521240 
	C136.023422,121.311188 140.619598,100.322441 139.545609,77.938828 
	C139.055725,67.729340 136.557373,57.905548 131.391983,48.908493 
	C116.750824,23.406578 88.018394,19.978395 67.042786,28.570457 
	C49.631336,35.702560 38.920860,48.324574 39.209888,69.125107 
z"/>
<path fill="#528B4C" opacity="1.000000" stroke="none" 
	d="
M310.232361,170.908951 
	C293.560822,169.245407 284.046478,159.524078 283.187958,143.259796 
	C282.406586,128.457352 285.905579,114.893661 295.609222,103.260147 
	C307.193848,89.371590 335.340881,82.218903 349.750641,100.762383 
	C352.354248,97.201477 354.371429,91.645477 357.855530,90.481895 
	C361.189514,89.368446 366.048187,92.820274 370.277069,94.279488 
	C360.388275,116.478569 359.839386,140.219238 354.888977,162.978302 
	C352.646027,173.290085 350.108673,183.424088 342.953156,191.648773 
	C332.669037,203.469437 319.067719,206.573853 304.197571,206.302444 
	C295.960602,206.152115 288.104614,204.596405 280.523315,200.108398 
	C282.925842,195.884247 285.195740,191.893265 287.556519,187.742477 
	C300.612793,192.760773 313.720123,195.544632 325.957642,187.231796 
	C334.739929,181.266098 336.452972,171.193741 338.180725,160.421738 
	C329.869293,167.825043 320.980835,171.362350 310.232361,170.908951 
M308.620422,155.193863 
	C319.046539,158.891571 327.938568,156.629364 335.216217,148.524872 
	C341.406738,141.631012 343.658173,133.277008 344.546600,124.331833 
	C345.794128,111.770561 337.524353,102.995926 325.004669,103.705193 
	C317.668213,104.120819 312.020569,107.652596 307.782654,113.394157 
	C301.471344,121.944893 299.460815,131.774490 300.332550,142.174164 
	C300.777374,147.480530 302.861664,152.162918 308.620422,155.193863 
z"/>
<path fill="#528B4C" opacity="1.000000" stroke="none" 
	d="
M365.230560,138.235916 
	C370.397430,109.009911 375.485046,80.208076 380.605743,51.219124 
	C386.167053,51.219124 391.434143,51.219124 397.556030,51.219124 
	C394.752258,67.141068 391.985657,82.852051 389.044800,99.552567 
	C390.829315,98.596069 392.077393,98.088692 393.145660,97.328590 
	C400.597626,92.026169 408.803986,89.496368 418.003418,89.976685 
	C430.670593,90.638062 439.034241,98.075844 438.681183,110.797020 
	C438.374390,121.852470 435.836975,132.834473 434.527618,143.877670 
	C433.638916,151.373123 433.168976,158.918228 432.420807,167.482483 
	C428.744568,168.818253 423.653259,170.668198 418.250366,172.631363 
	C414.489929,165.085495 415.040344,157.583328 416.352051,150.027252 
	C418.059326,140.192688 419.898560,130.380463 421.536896,120.534645 
	C423.609039,108.081894 415.833893,101.151764 403.659882,104.881317 
	C391.807556,108.512299 386.322113,117.803101 384.054413,129.185669 
	C381.327606,142.872437 379.080078,156.654694 376.573212,170.685791 
	C371.066742,170.685791 365.661041,170.685791 359.687500,170.685791 
	C361.533356,159.866287 363.342316,149.263199 365.230560,138.235916 
z"/>
<path fill="#518B4B" opacity="1.000000" stroke="none" 
	d="
M216.635422,163.648590 
	C203.779236,172.515244 189.989288,174.758453 175.418320,170.829056 
	C165.266922,168.091507 158.222382,161.449219 155.431824,151.096054 
	C151.031448,134.770355 156.148270,105.428444 179.507004,94.300873 
	C189.507126,89.537041 200.017075,88.509987 210.666199,91.227356 
	C227.221313,95.451759 237.081772,115.734467 230.621887,131.647354 
	C228.171265,137.684128 222.938187,138.467087 217.404465,138.486969 
	C203.908249,138.535477 190.411758,138.506454 176.915375,138.508560 
	C175.103699,138.508850 173.292038,138.508606 171.592331,138.508606 
	C168.573975,148.107895 174.722916,156.724869 185.351044,158.015839 
	C195.871414,159.293701 205.516159,156.931625 214.271698,149.913239 
	C216.718903,153.159363 218.980148,156.158813 221.575378,159.601288 
	C219.909424,160.966736 218.414780,162.191757 216.635422,163.648590 
M179.145508,112.679482 
	C177.076385,116.448326 175.007263,120.217163 172.594086,124.612656 
	C187.738007,124.612656 201.311966,124.612656 214.817612,124.612656 
	C217.244308,113.376801 210.621124,104.586006 199.638641,103.955338 
	C191.630493,103.495476 184.966507,106.162582 179.145508,112.679482 
z"/>
<path fill="#528B4C" opacity="1.000000" stroke="none" 
	d="
M520.935364,90.827736 
	C534.809204,88.672852 547.475342,90.054474 558.985901,99.098625 
	C556.284363,102.971214 553.762695,106.586006 551.891724,109.268013 
	C544.202087,107.332932 537.326965,105.077126 530.272827,104.049110 
	C526.738342,103.534012 522.547180,104.586143 519.278259,106.197685 
	C517.014893,107.313499 514.677734,110.513870 514.502441,112.936798 
	C514.357605,114.939178 516.901123,117.907677 519.015747,119.137794 
	C523.145325,121.540131 527.816101,123.007072 532.246704,124.899048 
	C535.454041,126.268661 538.687500,127.592613 541.817810,129.123917 
	C549.070312,132.671722 554.813660,137.554413 554.786194,146.439362 
	C554.756592,156.018600 550.666077,163.305313 542.041260,168.015381 
	C525.012085,177.315140 497.031616,172.547806 485.995728,158.070374 
	C489.759949,154.647598 493.545990,151.205002 497.649139,147.474060 
	C503.733704,154.740417 511.503082,158.266037 520.483093,158.531845 
	C524.515076,158.651184 528.940796,158.171585 532.566406,156.563034 
	C539.257812,153.594299 539.349304,146.124924 532.938538,142.670914 
	C528.719910,140.398010 524.090698,138.889664 519.654663,137.016968 
	C516.441650,135.660553 513.151428,134.447632 510.057495,132.856003 
	C502.569672,129.003967 496.809875,123.797462 497.051178,114.452705 
	C497.311340,104.376945 502.418701,97.525307 511.459717,93.575714 
	C514.319214,92.326553 517.482544,91.772842 520.935364,90.827736 
z"/>
<path fill="#538B4D" opacity="1.000000" stroke="none" 
	d="
M448.381287,96.338600 
	C449.290131,92.183647 451.657379,90.719124 455.368164,91.393784 
	C460.233459,92.278343 462.541534,90.324638 462.371735,85.377663 
	C462.015442,74.997612 467.533173,69.440407 477.221893,67.258728 
	C478.643494,66.938622 479.988373,66.277847 482.348419,65.417610 
	C481.497162,70.284058 480.767731,74.424454 480.049713,78.566833 
	C479.347534,82.618080 478.657013,86.671341 477.868011,91.267548 
	C484.730225,91.267548 491.148560,91.267548 498.619385,91.267548 
	C496.596161,96.081139 495.104523,100.231339 493.053467,104.083679 
	C492.545563,105.037666 490.245239,105.275978 488.730530,105.409767 
	C484.478821,105.785278 479.036072,104.448402 476.289642,106.612564 
	C473.798920,108.575218 474.136505,114.236687 473.404144,118.299316 
	C471.694244,127.784416 470.171265,137.303543 468.422882,146.781281 
	C466.407623,157.705780 469.165558,160.396530 479.880371,157.707840 
	C480.677185,157.507904 481.455811,157.235504 482.807251,156.825653 
	C483.511047,161.009430 484.183319,165.005875 484.902161,169.279083 
	C477.010010,172.501984 469.172821,173.443054 461.256317,171.407867 
	C453.479034,169.408478 449.426270,162.669876 450.732330,153.421478 
	C452.706360,139.443146 455.271301,125.548409 457.567902,111.615295 
	C457.860352,109.840828 458.049561,108.049324 458.376526,105.589401 
	C453.767120,105.589401 449.557983,105.589401 444.592529,105.589401 
	C446.010803,102.089073 447.106232,99.385468 448.381287,96.338600 
z"/>
<path fill="#528B4C" opacity="1.000000" stroke="none" 
	d="
M260.461609,76.514000 
	C254.878586,108.185860 249.410934,139.441544 243.934326,170.748444 
	C238.143448,170.748444 232.706726,170.748444 226.911591,170.748444 
	C233.946472,130.695511 240.926773,90.953300 247.901215,51.244499 
	C253.801529,51.244499 259.236328,51.244499 264.863251,51.244499 
	C263.400360,59.726917 261.988678,67.912369 260.461609,76.514000 
z"/>
<path fill="#538B4D" opacity="1.000000" stroke="none" 
	d="
M280.042511,111.140594 
	C276.512848,131.194839 273.027710,150.818390 269.496246,170.702881 
	C263.908813,170.702881 258.512268,170.702881 252.570312,170.702881 
	C254.478394,159.642838 256.296387,148.861572 258.205994,138.096558 
	C260.732574,123.853493 263.463806,109.644875 265.797089,95.370781 
	C266.325195,92.139862 267.506348,91.168106 270.579010,91.329521 
	C274.544128,91.537827 278.528442,91.380264 283.491791,91.380264 
	C282.297791,98.158905 281.192413,104.434402 280.042511,111.140594 
z"/>
<path fill="#538B4D" opacity="1.000000" stroke="none" 
	d="
M267.732941,70.258850 
	C266.897644,60.207012 275.211456,52.904842 284.442108,55.261158 
	C288.270050,56.238327 290.700012,58.643940 291.329620,62.784203 
	C292.288696,69.091240 287.963684,75.384926 281.198944,77.227882 
	C274.667053,79.007408 270.123138,76.768524 267.732941,70.258850 
z"/>
<path fill="#FDFEFD" opacity="1.000000" stroke="none" 
	d="
M39.183758,68.685150 
	C38.920860,48.324574 49.631336,35.702560 67.042786,28.570457 
	C88.018394,19.978395 116.750824,23.406578 131.391983,48.908493 
	C136.557373,57.905548 139.055725,67.729340 139.545609,77.938828 
	C140.619598,100.322441 136.023422,121.311188 122.267540,139.521240 
	C119.421509,143.288803 115.632759,146.559311 111.723541,149.253754 
	C106.927315,152.559586 101.599686,153.475906 95.653389,151.212296 
	C86.855164,147.862991 77.786964,145.222931 69.077919,142.361130 
	C72.277351,133.002716 75.225479,124.066994 78.479958,115.244286 
	C78.899811,114.106079 80.848030,113.439598 82.188904,112.750389 
	C86.264496,110.655556 90.570145,108.938583 94.404907,106.479805 
	C95.909752,105.514915 96.403267,102.972717 97.598610,100.687645 
	C92.291748,100.687645 87.874069,100.687645 82.194794,100.687645 
	C87.873528,79.799606 93.464096,59.235874 99.202835,38.127106 
	C94.022102,37.861767 88.455223,37.333073 82.904610,37.468895 
	C81.568199,37.501595 79.595146,39.501049 79.084587,40.995625 
	C73.609795,57.021908 68.366005,73.127151 63.071114,89.214775 
	C62.457081,91.080406 61.916763,92.970306 61.356739,94.801666 
	C49.541916,92.919434 41.423908,83.388138 39.183758,68.685150 
z"/>
<path fill="#FDFEFD" opacity="1.000000" stroke="none" 
	d="
M308.260468,155.052521 
	C302.861664,152.162918 300.777374,147.480530 300.332550,142.174164 
	C299.460815,131.774490 301.471344,121.944893 307.782654,113.394157 
	C312.020569,107.652596 317.668213,104.120819 325.004669,103.705193 
	C337.524353,102.995926 345.794128,111.770561 344.546600,124.331833 
	C343.658173,133.277008 341.406738,141.631012 335.216217,148.524872 
	C327.938568,156.629364 319.046539,158.891571 308.260468,155.052521 
z"/>
<path fill="#FBFCFB" opacity="1.000000" stroke="none" 
	d="
M179.388947,112.415970 
	C184.966507,106.162582 191.630493,103.495476 199.638641,103.955338 
	C210.621124,104.586006 217.244308,113.376801 214.817612,124.612656 
	C201.311966,124.612656 187.738007,124.612656 172.594086,124.612656 
	C175.007263,120.217163 177.076385,116.448326 179.388947,112.415970 
z"/>
</svg>